<svg xmlns="http://www.w3.org/2000/svg" xmlns:xlink="http://www.w3.org/1999/xlink" width="2000" zoomAndPan="magnify" viewBox="0 0 1500 1499.999933" height="2000" preserveAspectRatio="xMidYMid meet" version="1.0"><defs><clipPath id="90d0fc1e39"><path d="M 717 564 L 1003 564 L 1003 1040 L 717 1040 Z M 717 564 " clip-rule="nonzero"/></clipPath><clipPath id="ac8e0f89d2"><path d="M 697.613281 595.527344 L 807.335938 544.765625 L 1022.089844 1008.945312 L 912.367188 1059.707031 Z M 697.613281 595.527344 " clip-rule="nonzero"/></clipPath><clipPath id="d509631dd1"><path d="M 752.476562 570.148438 C 767.027344 563.414062 783.652344 562.738281 798.703125 568.269531 C 813.75 573.796875 825.988281 585.078125 832.71875 599.625 L 996.519531 953.671875 C 1003.25 968.21875 1003.925781 984.847656 998.398438 999.898438 C 992.867188 1014.945312 981.589844 1027.183594 967.039062 1033.914062 C 952.488281 1040.644531 935.859375 1041.320312 920.8125 1035.792969 C 905.761719 1030.265625 893.527344 1018.984375 886.792969 1004.433594 L 722.996094 650.390625 C 716.265625 635.839844 715.589844 619.210938 721.117188 604.164062 C 726.644531 589.113281 737.925781 576.878906 752.476562 570.148438 Z M 752.476562 570.148438 " clip-rule="nonzero"/></clipPath><clipPath id="47515c36c7"><path d="M 0 0 L 286 0 L 286 476 L 0 476 Z M 0 0 " clip-rule="nonzero"/></clipPath><clipPath id="55111b25aa"><path d="M -19.386719 31.527344 L 90.335938 -19.234375 L 305.089844 444.945312 L 195.367188 495.707031 Z M -19.386719 31.527344 " clip-rule="nonzero"/></clipPath><clipPath id="9ad2c903a7"><path d="M 35.476562 6.148438 C 50.027344 -0.585938 66.652344 -1.261719 81.703125 4.269531 C 96.75 9.796875 108.988281 21.078125 115.71875 35.625 L 279.519531 389.671875 C 286.25 404.21875 286.925781 420.847656 281.398438 435.898438 C 275.867188 450.945312 264.589844 463.183594 250.039062 469.914062 C 235.488281 476.644531 218.859375 477.320312 203.8125 471.792969 C 188.761719 466.265625 176.527344 454.984375 169.792969 440.433594 L 5.996094 86.390625 C -0.734375 71.839844 -1.410156 55.210938 4.117188 40.164062 C 9.644531 25.113281 20.925781 12.878906 35.476562 6.148438 Z M 35.476562 6.148438 " clip-rule="nonzero"/></clipPath><clipPath id="06270681e2"><rect x="0" width="286" y="0" height="476"/></clipPath><clipPath id="9150fa2ecb"><path d="M 581 747 L 771 747 L 771 1042 L 581 1042 Z M 581 747 " clip-rule="nonzero"/></clipPath><clipPath id="8fc1c1a18c"><path d="M 681.917969 730.449219 L 787.695312 774.023438 L 670.074219 1059.542969 L 564.296875 1015.964844 Z M 681.917969 730.449219 " clip-rule="nonzero"/></clipPath><clipPath id="178f5cd680"><path d="M 734.804688 752.234375 C 748.832031 758.015625 759.988281 769.128906 765.824219 783.132812 C 771.65625 797.136719 771.6875 812.886719 765.90625 826.914062 L 691.964844 1006.410156 C 686.1875 1020.4375 675.070312 1031.59375 661.066406 1037.425781 C 647.0625 1043.257812 631.316406 1043.289062 617.289062 1037.511719 C 603.261719 1031.730469 592.105469 1020.617188 586.269531 1006.613281 C 580.4375 992.609375 580.40625 976.859375 586.1875 962.832031 L 660.128906 783.335938 C 665.90625 769.308594 677.023438 758.152344 691.027344 752.320312 C 705.03125 746.488281 720.777344 746.457031 734.804688 752.234375 Z M 734.804688 752.234375 " clip-rule="nonzero"/></clipPath><clipPath id="e919663113"><path d="M 0 0 L 190 0 L 190 295 L 0 295 Z M 0 0 " clip-rule="nonzero"/></clipPath><clipPath id="45491b22eb"><path d="M 100.917969 -16.550781 L 206.695312 27.023438 L 89.074219 312.542969 L -16.703125 268.964844 Z M 100.917969 -16.550781 " clip-rule="nonzero"/></clipPath><clipPath id="fe0aa0c9b6"><path d="M 153.804688 5.234375 C 167.832031 11.015625 178.988281 22.128906 184.824219 36.132812 C 190.65625 50.136719 190.6875 65.886719 184.90625 79.914062 L 110.964844 259.410156 C 105.1875 273.4375 94.070312 284.59375 80.066406 290.425781 C 66.0625 296.257812 50.316406 296.289062 36.289062 290.511719 C 22.261719 284.730469 11.105469 273.617188 5.269531 259.613281 C -0.5625 245.609375 -0.59375 229.859375 5.1875 215.832031 L 79.128906 36.335938 C 84.90625 22.308594 96.023438 11.152344 110.027344 5.320312 C 124.03125 -0.511719 139.777344 -0.542969 153.804688 5.234375 Z M 153.804688 5.234375 " clip-rule="nonzero"/></clipPath><clipPath id="7e2d857311"><rect x="0" width="190" y="0" height="295"/></clipPath><clipPath id="3f0a5e8149"><path d="M 1009.171875 925.429688 L 1120.921875 925.429688 L 1120.921875 1037.179688 L 1009.171875 1037.179688 Z M 1009.171875 925.429688 " clip-rule="nonzero"/></clipPath><clipPath id="41c68beded"><path d="M 1009.171875 981.269531 C 1009.171875 1012.109375 1034.175781 1037.113281 1065.015625 1037.113281 C 1095.855469 1037.113281 1120.855469 1012.109375 1120.855469 981.269531 C 1120.855469 950.429688 1095.855469 925.429688 1065.015625 925.429688 C 1034.175781 925.429688 1009.171875 950.429688 1009.171875 981.269531 Z M 1009.171875 981.269531 " clip-rule="nonzero"/></clipPath></defs><g clip-path="url(#90d0fc1e39)"><g clip-path="url(#ac8e0f89d2)"><g clip-path="url(#d509631dd1)"><g transform="matrix(1, 0, 0, 1, 717, 564)"><g clip-path="url(#06270681e2)"><g clip-path="url(#47515c36c7)"><g clip-path="url(#55111b25aa)"><g clip-path="url(#9ad2c903a7)"><path fill="#ee4a36" d="M -19.386719 31.527344 L 90.335938 -19.234375 L 304.894531 444.515625 L 195.167969 495.28125 Z M -19.386719 31.527344 " fill-opacity="1" fill-rule="nonzero"/></g></g></g></g></g></g></g></g><g clip-path="url(#9150fa2ecb)"><g clip-path="url(#8fc1c1a18c)"><g clip-path="url(#178f5cd680)"><g transform="matrix(1, 0, 0, 1, 581, 747)"><g clip-path="url(#7e2d857311)"><g clip-path="url(#e919663113)"><g clip-path="url(#45491b22eb)"><g clip-path="url(#fe0aa0c9b6)"><path fill="#ee4a36" d="M 100.917969 -16.550781 L 206.695312 27.023438 L 89.246094 312.128906 L -16.53125 268.554688 Z M 100.917969 -16.550781 " fill-opacity="1" fill-rule="nonzero"/></g></g></g></g></g></g></g></g><g clip-path="url(#3f0a5e8149)"><g clip-path="url(#41c68beded)"><path fill="#0e4f55" d="M 1065.011719 925.429688 C 1034.160156 925.429688 1009.171875 950.417969 1009.171875 981.269531 C 1009.171875 1012.121094 1034.160156 1037.109375 1065.011719 1037.109375 C 1095.863281 1037.109375 1120.851562 1012.121094 1120.851562 981.269531 C 1120.851562 950.417969 1095.863281 925.429688 1065.011719 925.429688 Z M 1065.011719 925.429688 " fill-opacity="1" fill-rule="nonzero"/></g></g></svg>