<svg xmlns="http://www.w3.org/2000/svg" viewBox="0 0 1078.8 251.4"><g transform="translate(-219.42,-211.76) scale(0.38871)"><path d="M 752.477 570.148 C 767.027 563.414 783.652 562.738 798.703 568.27 C 813.75 573.797 825.988 585.078 832.719 599.625 L 996.52 953.672 C 1003.25 968.219 1003.926 984.848 998.398 999.898 C 992.867 1014.945 981.59 1027.184 967.039 1033.914 C 952.488 1040.645 935.859 1041.32 920.812 1035.793 C 905.762 1030.266 893.527 1018.984 886.793 1004.434 L 722.996 650.391 C 716.266 635.84 715.59 619.211 721.117 604.164 C 726.645 589.113 737.926 576.879 752.477 570.148 Z" fill="#ee4a36"/><path d="M 734.805 752.234 C 748.832 758.016 759.988 769.129 765.824 783.133 C 771.656 797.137 771.688 812.887 765.906 826.914 L 691.965 1006.41 C 686.188 1020.438 675.07 1031.594 661.066 1037.426 C 647.062 1043.258 631.316 1043.289 617.289 1037.512 C 603.262 1031.73 592.105 1020.617 586.27 1006.613 C 580.438 992.609 580.406 976.859 586.188 962.832 L 660.129 783.336 C 665.906 769.309 677.023 758.152 691.027 752.32 C 705.031 746.488 720.777 746.457 734.805 752.234 Z" fill="#ee4a36"/><circle cx="1065.012" cy="981.27" r="55.84" fill="#0e4f55"/></g><g fill="#0e4f55"><g transform="translate(296.26,200.00) scale(0.18830,-0.18830)"><path d="M286 563Q348 563 394.5 538.0Q441 513 469 475V554H610V0H469V81Q442 42 394.5 16.5Q347 -9 285 -9Q215 -9 157.5 27.0Q100 63 66.5 128.5Q33 194 33 279Q33 363 66.5 428.0Q100 493 157.5 528.0Q215 563 286 563ZM322 440Q283 440 250.0 421.0Q217 402 196.5 365.5Q176 329 176 279Q176 229 196.5 191.5Q217 154 250.5 134.0Q284 114 322 114Q361 114 395.0 133.5Q429 153 449.0 189.5Q469 226 469 277Q469 328 449.0 364.5Q429 401 395.0 420.5Q361 440 322 440Z"/></g><g transform="translate(423.93,200.00) scale(0.18830,-0.18830)"><path d="M469 475V554H610V-4Q610 -81 579.0 -141.5Q548 -202 486.0 -237.5Q424 -273 336 -273Q218 -273 142.5 -218.0Q67 -163 57 -68H196Q207 -106 243.5 -128.5Q280 -151 332 -151Q393 -151 431.0 -114.5Q469 -78 469 -4V82Q442 43 394.5 17.0Q347 -9 286 -9Q216 -9 158.0 27.0Q100 63 66.5 128.5Q33 194 33 279Q33 363 66.5 428.0Q100 493 157.5 528.0Q215 563 286 563Q348 563 395.0 538.5Q442 514 469 475ZM322 440Q283 440 250.0 421.0Q217 402 196.5 365.5Q176 329 176 279Q176 229 196.5 191.5Q217 154 250.5 134.0Q284 114 322 114Q361 114 395.0 133.5Q429 153 449.0 189.5Q469 226 469 277Q469 328 449.0 364.5Q429 401 395.0 420.5Q361 440 322 440Z"/></g><g transform="translate(551.60,200.00) scale(0.18830,-0.18830)"><path d="M54 702Q54 737 78.5 760.5Q103 784 140 784Q177 784 201.5 760.5Q226 737 226 702Q226 667 201.5 643.5Q177 620 140 620Q103 620 78.5 643.5Q54 667 54 702ZM209 554V0H69V554Z"/></g><g transform="translate(603.94,200.00) scale(0.18830,-0.18830)"><path d="M39 175H180Q184 143 211.5 122.0Q239 101 280 101Q320 101 342.5 117.0Q365 133 365 158Q365 185 337.5 198.5Q310 212 250 228Q188 243 148.5 259.0Q109 275 80.5 308.0Q52 341 52 397Q52 443 78.5 481.0Q105 519 154.5 541.0Q204 563 271 563Q370 563 429.0 513.5Q488 464 494 380H360Q357 413 332.5 432.5Q308 452 267 452Q229 452 208.5 438.0Q188 424 188 399Q188 371 216.0 356.5Q244 342 303 327Q363 312 402.0 296.0Q441 280 469.5 246.5Q498 213 499 158Q499 110 472.5 72.0Q446 34 396.5 12.5Q347 -9 281 -9Q213 -9 159.0 15.5Q105 40 73.5 82.0Q42 124 39 175Z"/></g><g transform="translate(706.57,200.00) scale(0.18830,-0.18830)"><path d="M286 563Q348 563 394.5 538.0Q441 513 469 475V554H610V0H469V81Q442 42 394.5 16.5Q347 -9 285 -9Q215 -9 157.5 27.0Q100 63 66.5 128.5Q33 194 33 279Q33 363 66.5 428.0Q100 493 157.5 528.0Q215 563 286 563ZM322 440Q283 440 250.0 421.0Q217 402 196.5 365.5Q176 329 176 279Q176 229 196.5 191.5Q217 154 250.5 134.0Q284 114 322 114Q361 114 395.0 133.5Q429 153 449.0 189.5Q469 226 469 277Q469 328 449.0 364.5Q429 401 395.0 420.5Q361 440 322 440Z"/></g><g transform="translate(834.24,200.00) scale(0.18830,-0.18830)"><path d="M597 325V0H457V306Q457 372 424.0 407.5Q391 443 334 443Q276 443 242.5 407.5Q209 372 209 306V0H69V554H209V485Q237 521 280.5 541.5Q324 562 376 562Q475 562 536.0 499.5Q597 437 597 325Z"/></g><g transform="translate(958.71,200.00) scale(0.18830,-0.18830)"><path d="M34 277Q34 362 71.5 427.0Q109 492 174.0 527.5Q239 563 319 563Q399 563 464.0 527.5Q529 492 566.5 427.0Q604 362 604 277Q604 192 565.5 127.0Q527 62 461.5 26.5Q396 -9 315 -9Q235 -9 171.0 26.5Q107 62 70.5 127.0Q34 192 34 277ZM460 277Q460 356 418.5 398.5Q377 441 317 441Q257 441 216.5 398.5Q176 356 176 277Q176 198 215.5 155.5Q255 113 315 113Q353 113 386.5 131.5Q420 150 440.0 187.0Q460 224 460 277Z"/></g></g></svg>