<svg xmlns="http://www.w3.org/2000/svg" viewBox="486.581 445.964 712.119 712.119">
<path d="M 752.477 570.148 C 767.027 563.414 783.652 562.738 798.703 568.27 C 813.75 573.797 825.988 585.078 832.719 599.625 L 996.52 953.672 C 1003.25 968.219 1003.926 984.848 998.398 999.898 C 992.867 1014.945 981.59 1027.184 967.039 1033.914 C 952.488 1040.645 935.859 1041.32 920.812 1035.793 C 905.762 1030.266 893.527 1018.984 886.793 1004.434 L 722.996 650.391 C 716.266 635.84 715.59 619.211 721.117 604.164 C 726.645 589.113 737.926 576.879 752.477 570.148 Z" fill="#ee4a36"/>
<path d="M 734.805 752.234 C 748.832 758.016 759.988 769.129 765.824 783.133 C 771.656 797.137 771.688 812.887 765.906 826.914 L 691.965 1006.41 C 686.188 1020.438 675.07 1031.594 661.066 1037.426 C 647.062 1043.258 631.316 1043.289 617.289 1037.512 C 603.262 1031.73 592.105 1020.617 586.27 1006.613 C 580.438 992.609 580.406 976.859 586.188 962.832 L 660.129 783.336 C 665.906 769.309 677.023 758.152 691.027 752.32 C 705.031 746.488 720.777 746.457 734.805 752.234 Z" fill="#ee4a36"/>
<circle cx="1065.012" cy="981.270" r="78.176" fill="#0e4f55"/>
</svg>